<svg width="48" height="49" viewBox="0 0 48 49" fill="none" xmlns="http://www.w3.org/2000/svg">
<g id="delivery_3661447 1" clip-path="url(#clip0_1987_168)">
<g id="Group">
<g id="delivery-truck">
<path id="Combined-Shape_4_" fill-rule="evenodd" clip-rule="evenodd" d="M38.4 32.6883C40.5832 32.6883 42.353 34.4581 42.353 36.6412C42.353 38.8244 40.5832 40.5942 38.4 40.5942C36.2168 40.5942 34.447 38.8244 34.447 36.6412C34.447 34.4581 36.2168 32.6883 38.4 32.6883ZM10.7294 32.6883C12.9126 32.6883 14.6824 34.4581 14.6824 36.6412C14.6824 38.8244 12.9126 40.5942 10.7294 40.5942C8.5462 40.5942 6.7764 38.8244 6.7764 36.6412C6.77649 34.4581 8.5463 32.6883 10.7294 32.6883ZM27.1059 8.40588C28.3534 8.40588 29.3647 9.41722 29.3647 10.6647V36.0765L15.7808 36.0767C15.5 33.5355 13.3455 31.5589 10.7294 31.5589C8.11325 31.5589 5.9589 33.5355 5.67799 36.0767L2.25877 36.0765C1.01133 36.0765 0 35.0652 0 33.8176V10.6647C0 9.41722 1.01133 8.40588 2.25886 8.40588H27.1059ZM36.9476 15.747C37.5487 15.747 38.1249 15.9865 38.5489 16.4127L47.3424 25.2509C47.7636 25.6742 48 26.2469 48 26.8441V33.8177C48 35.0653 46.9887 36.0766 45.7411 36.0766L43.4513 36.0768C43.1705 33.5356 41.016 31.559 38.3999 31.559C35.7838 31.559 33.6294 33.5356 33.3485 36.0768L30.494 36.0766V15.747H36.9476ZM37.0367 17.4411H35.5765V26.4764H44.9426C45.0924 26.4764 45.236 26.4169 45.342 26.311C45.5456 26.1074 45.5612 25.7871 45.3889 25.5656L45.342 25.5124L37.4361 17.6065C37.3301 17.5007 37.1865 17.4411 37.0367 17.4411Z" fill="#6495E5"/>
</g>
</g>
</g>
<defs>
<clipPath id="clip0_1987_168">
<rect width="48" height="48" fill="white" transform="translate(0 0.5)"/>
</clipPath>
</defs>
</svg>
