<svg width="49" height="49" viewBox="0 0 49 49" fill="none" xmlns="http://www.w3.org/2000/svg">
<g id="customer-service_174188 1" clip-path="url(#clip0_1987_158)">
<g id="XMLID_2_">
<g id="Group">
<g id="Group_2">
<path id="Vector" d="M38.0479 31.5182C36.147 34.129 33.0677 35.8294 29.5984 35.8294H24.7304C23.0488 35.8294 21.6167 34.7618 21.0744 33.2675C20.4051 33.0678 19.7487 32.8086 19.1081 32.4904C17.7517 31.8164 16.52 30.9033 15.4358 29.7722C8.40288 31.3173 3.13922 37.5839 3.13922 45.081V46.0609C3.13922 47.4079 4.23128 48.5 5.57834 48.5H43.4216C44.7687 48.5 45.8607 47.4079 45.8607 46.0609V45.081C45.8606 39.2895 42.7193 34.232 38.0479 31.5182Z" fill="#6495E5"/>
<path id="Vector_2" d="M12.8434 24.7448C13.8917 24.7448 14.8041 24.1638 15.2769 23.3063C15.2893 23.3403 15.3019 23.374 15.3147 23.4077C15.3184 23.4179 15.3222 23.428 15.3259 23.4381C16.4349 26.3572 18.5927 28.8042 21.438 29.8734C22.1262 28.78 23.343 28.0528 24.7305 28.0528H29.5985C30.0841 28.0528 30.536 27.9158 30.9322 27.6943C31.5976 27.3222 32.1959 26.3784 32.5049 25.8781C32.9994 25.0775 33.3825 24.2294 33.7222 23.3049C33.9131 23.6516 34.1756 23.9531 34.4901 24.1894V25.3831C34.4901 28.0804 32.2958 30.2748 29.5984 30.2748H24.7304C23.8101 30.2748 23.064 31.0209 23.064 31.9412C23.064 32.8616 23.8101 33.6076 24.7304 33.6076H29.5984C34.1334 33.6076 37.8229 29.9181 37.8229 25.3831V24.1894C38.4974 23.6827 38.9338 22.8761 38.9338 21.9675V16.9428V15.016C38.9338 14.0887 38.4791 13.2682 37.7808 12.7638C37.2393 5.91079 31.4897 0.5 24.4999 0.5C17.5101 0.5 11.7606 5.91079 11.2191 12.7637C10.5208 13.2681 10.066 14.0887 10.066 15.0159V21.9673C10.066 23.5056 11.3157 24.7448 12.8434 24.7448ZM24.4999 3.83288C29.6743 3.83288 33.9422 7.78717 34.441 12.8326C34.1136 13.0902 33.8453 13.4194 33.6605 13.7972C32.0881 9.69488 28.578 6.8387 24.4998 6.8387C20.3338 6.8387 16.88 9.79304 15.3454 13.7809C15.3433 13.7863 15.3413 13.7918 15.3392 13.7974C15.1544 13.4196 14.8861 13.0903 14.5586 12.8327C15.0578 7.78717 19.3256 3.83288 24.4999 3.83288Z" fill="#6495E5"/>
</g>
</g>
</g>
</g>
<defs>
<clipPath id="clip0_1987_158">
<rect width="48" height="48" fill="white" transform="translate(0.5 0.5)"/>
</clipPath>
</defs>
</svg>
