<svg width="49" height="49" viewBox="0 0 49 49" fill="none" xmlns="http://www.w3.org/2000/svg">
<g id="quality-service_8922619 1">
<path id="Vector" fill-rule="evenodd" clip-rule="evenodd" d="M31.4208 25.1738L33.2205 29.0394C33.2909 29.1906 33.5019 29.2002 33.5858 29.056L35.1799 26.3127L38.3054 26.8588C38.4699 26.8875 38.5984 26.7201 38.5279 26.5686L36.2868 21.7549C36.1745 21.8169 36.0966 21.8932 36.0179 22.0135L35.064 23.472C34.2548 24.7092 32.8451 25.3474 31.4208 25.1738ZM15.5899 30.8321C17.0655 29.9772 18.566 29.371 20.1878 29.8971C21.9962 30.4835 24.9489 31.7428 27.9604 32.2859C29.0782 32.6482 29.775 33.7675 29.4709 34.9023C29.2305 35.7997 28.3898 36.6027 27.4163 36.3447L22.4153 35.0195C22.0156 34.9143 21.6064 35.1531 21.5012 35.5528C21.396 35.9524 21.6348 36.3616 22.0344 36.4668L27.0354 37.792C28.3118 38.1302 29.5169 37.6257 30.1536 36.4771C30.5357 36.3682 30.9095 36.2088 31.2771 35.9948L38.8365 31.5918C44.7127 28.1695 45.5757 33.4345 43.622 34.6374L29.9035 43.0846C28.6418 43.8614 27.2612 44.0427 25.8299 43.659L15.8795 40.9928L15.08 41.4543L10.6787 33.6775L15.5899 30.8321ZM8.64038 33.1215C8.33888 32.5887 7.65629 32.3995 7.1236 32.7011L5.0026 33.9015C4.46982 34.2029 4.28063 34.8855 4.58213 35.4182L10.8177 46.4361C11.1192 46.9689 11.8018 47.1581 12.3345 46.8565L14.4555 45.6561C14.9883 45.3546 15.1775 44.672 14.876 44.1393L8.64038 33.1215ZM7.08591 34.5527C7.49972 34.4922 7.88429 34.7787 7.94476 35.1925C8.00522 35.6063 7.71882 35.9909 7.30501 36.0513C6.89119 36.1119 6.50663 35.8254 6.44616 35.4116C6.3856 34.9978 6.6721 34.6133 7.08591 34.5527ZM28.8622 6.92714C25.5901 6.92714 22.9378 9.57942 22.9378 12.8515C22.9378 16.1235 25.5901 18.7758 28.8622 18.7758C32.1342 18.7758 34.7865 16.1235 34.7865 12.8515C34.7865 9.57942 32.1342 6.92714 28.8622 6.92714ZM27.9856 13.4401L31.231 10.1625C31.6152 9.77442 32.2419 9.77329 32.6288 10.158C33.0156 10.5427 33.0168 11.1676 32.6331 11.5549C31.3171 12.8832 30.0099 14.2201 28.6878 15.5423C28.3013 15.9288 27.6743 15.9288 27.2878 15.5423L25.0943 13.3488C24.7078 12.9623 24.7078 12.3354 25.0943 11.9489C25.4809 11.5623 26.1079 11.5623 26.4944 11.9489L27.9856 13.4401ZM30.2499 2.46905L31.6451 3.51342C32.0267 3.79908 32.4284 3.94523 32.9043 3.97167L34.6444 4.06842C35.6863 4.12636 36.5326 4.83642 36.7705 5.85248L37.168 7.54936C37.2768 8.01342 37.4904 8.38364 37.838 8.70979L39.1088 9.90248C39.8696 10.6166 40.0614 11.7045 39.5907 12.6359L38.8045 14.1913C38.5895 14.6166 38.5153 15.0375 38.5718 15.5108L38.7787 17.2413C38.9025 18.2775 38.3501 19.2342 37.3909 19.645L35.7888 20.331C35.3507 20.5187 35.0232 20.7934 34.7623 21.1923L33.8084 22.6509C33.2373 23.5243 32.1992 23.9021 31.2003 23.6002L29.532 23.096C29.0757 22.9581 28.6483 22.9581 28.192 23.096L26.5238 23.6002C25.5248 23.9021 24.4868 23.5243 23.9156 22.6509L22.9617 21.1923C22.7008 20.7934 22.3734 20.5187 21.9353 20.331L20.3332 19.645C19.3739 19.2342 18.8215 18.2775 18.9454 17.2413L19.1522 15.5108C19.2088 15.0375 19.1346 14.6166 18.9195 14.1913L18.1332 12.6359C17.6625 11.7045 17.8543 10.6167 18.6152 9.90248L19.886 8.70979C20.2335 8.38364 20.4472 8.01342 20.5559 7.54936L20.9534 5.85248C21.1914 4.83642 22.0376 4.12636 23.0796 4.06842L24.8197 3.97167C25.2955 3.94523 25.6973 3.79898 26.0788 3.51342L27.4741 2.46905C28.3099 1.84373 29.4145 1.84373 30.2499 2.46905ZM28.8622 5.42714C32.9623 5.42714 36.2865 8.75123 36.2865 12.8515C36.2865 16.9517 32.9624 20.2758 28.8622 20.2758C24.7619 20.2758 21.4378 16.9517 21.4378 12.8515C21.4378 8.75123 24.762 5.42714 28.8622 5.42714ZM26.3036 25.1737C24.8792 25.3473 23.4697 24.7091 22.6604 23.4719L21.7065 22.0133C21.6278 21.893 21.55 21.8167 21.4376 21.7547L19.1964 26.5684C19.1259 26.7198 19.2543 26.8873 19.4189 26.8586L22.5445 26.3125L24.1387 29.0558C24.2225 29.2 24.4334 29.1904 24.5039 29.0392L26.3036 25.1737Z" fill="#6495E5"/>
</g>
</svg>
