<svg width="48" height="49" viewBox="0 0 48 49" fill="none" xmlns="http://www.w3.org/2000/svg">
<g id="Instagram">
<rect y="0.140137" width="48" height="48" fill="#2E282A"/>
<rect y="0.140137" width="48" height="48" fill="white" fill-opacity="0.02"/>
<g id="Instagram_2">
<path id="Vector" d="M21.5006 24.6401C21.5006 23.2595 22.6196 22.1399 24.0002 22.1399C25.3809 22.1399 26.5004 23.2595 26.5004 24.6401C26.5004 26.0208 25.3809 27.1403 24.0002 27.1403C22.6196 27.1403 21.5006 26.0208 21.5006 24.6401ZM20.1491 24.6401C20.1491 26.7671 21.8732 28.4913 24.0002 28.4913C26.1272 28.4913 27.8514 26.7671 27.8514 24.6401C27.8514 22.5131 26.1272 20.789 24.0002 20.789C21.8732 20.789 20.1491 22.5131 20.1491 24.6401ZM27.1039 20.6363C27.1038 20.8143 27.1565 20.9883 27.2553 21.1364C27.3542 21.2844 27.4947 21.3998 27.6591 21.468C27.8235 21.5362 28.0045 21.5541 28.1791 21.5194C28.3537 21.4848 28.5141 21.3991 28.64 21.2733C28.7659 21.1475 28.8517 20.9871 28.8865 20.8126C28.9213 20.638 28.9035 20.457 28.8355 20.2926C28.7674 20.1281 28.6521 19.9875 28.5042 19.8885C28.3562 19.7896 28.1822 19.7367 28.0042 19.7366H28.0039C27.7653 19.7367 27.5365 19.8316 27.3677 20.0002C27.199 20.1689 27.1041 20.3977 27.1039 20.6363ZM20.9702 30.745C20.239 30.7117 19.8416 30.5899 19.5775 30.487C19.2273 30.3506 18.9775 30.1883 18.7148 29.926C18.4521 29.6636 18.2895 29.414 18.1538 29.0639C18.0508 28.7999 17.929 28.4023 17.8958 27.6711C17.8594 26.8805 17.8522 26.6431 17.8522 24.6402C17.8522 22.6373 17.86 22.4005 17.8958 21.6093C17.9291 20.8781 18.0518 20.4813 18.1538 20.2165C18.2901 19.8664 18.4525 19.6165 18.7148 19.3538C18.9771 19.0912 19.2267 18.9286 19.5775 18.7928C19.8415 18.6899 20.239 18.5681 20.9702 18.5348C21.7608 18.4985 21.9983 18.4912 24.0002 18.4912C26.0022 18.4912 26.2399 18.4991 27.0311 18.5348C27.7624 18.5681 28.1591 18.6908 28.4239 18.7928C28.7741 18.9286 29.0239 19.0915 29.2866 19.3538C29.5493 19.6162 29.7113 19.8664 29.8476 20.2165C29.9506 20.4805 30.0724 20.8781 30.1056 21.6093C30.142 22.4005 30.1492 22.6373 30.1492 24.6402C30.1492 26.6431 30.142 26.8799 30.1056 27.6711C30.0723 28.4023 29.9499 28.7998 29.8476 29.0639C29.7113 29.414 29.5489 29.6639 29.2866 29.926C29.0243 30.188 28.7741 30.3506 28.4239 30.487C28.1599 30.5899 27.7624 30.7117 27.0311 30.745C26.2406 30.7813 26.0031 30.7886 24.0002 30.7886C21.9974 30.7886 21.7606 30.7813 20.9702 30.745ZM20.9081 17.1856C20.1097 17.2219 19.5641 17.3485 19.0877 17.5339C18.5942 17.7254 18.1765 17.9822 17.7591 18.399C17.3417 18.8158 17.0855 19.2341 16.894 19.7276C16.7086 20.2043 16.582 20.7496 16.5457 21.548C16.5087 22.3477 16.5002 22.6034 16.5002 24.6401C16.5002 26.6769 16.5087 26.9326 16.5457 27.7322C16.582 28.5307 16.7086 29.0759 16.894 29.5527C17.0855 30.0458 17.3417 30.4647 17.7591 30.8813C18.1765 31.2979 18.5942 31.5544 19.0877 31.7464C19.565 31.9318 20.1097 32.0584 20.9081 32.0947C21.7082 32.1311 21.9635 32.1401 24.0002 32.1401C26.037 32.1401 26.2927 32.1317 27.0923 32.0947C27.8908 32.0584 28.436 31.9318 28.9128 31.7464C29.4059 31.5544 29.824 31.298 30.2414 30.8813C30.6588 30.4645 30.9145 30.0458 31.1065 29.5527C31.2919 29.0759 31.4191 28.5307 31.4548 27.7322C31.4912 26.932 31.4996 26.6769 31.4996 24.6401C31.4996 22.6034 31.4912 22.3477 31.4548 21.548C31.4185 20.7496 31.2919 20.204 31.1065 19.7276C30.9145 19.2344 30.6581 18.8164 30.2414 18.399C29.8246 17.9816 29.4059 17.7254 28.9134 17.5339C28.436 17.3485 27.8908 17.2213 27.0929 17.1856C26.2933 17.1492 26.0376 17.1401 24.0008 17.1401C21.9641 17.1401 21.7082 17.1486 20.9081 17.1856Z" fill="white"/>
</g>
</g>
</svg>
