<svg width="48" height="49" viewBox="0 0 48 49" fill="none" xmlns="http://www.w3.org/2000/svg">
<g id="Twitter">
<rect y="0.140137" width="48" height="48" fill="#2E282A"/>
<rect y="0.140137" width="48" height="48" fill="white" fill-opacity="0.02"/>
<g id="Twitter_2">
<path id="Path" d="M29.8813 21.0464C29.8813 21.1776 29.8813 21.3089 29.8813 21.4214C29.8813 25.3026 26.9188 29.7839 21.5188 29.7839C19.85 29.7839 18.3125 29.2964 17 28.4714C17.225 28.4901 17.4687 28.5089 17.6937 28.5089C19.0625 28.5089 20.3375 28.0401 21.35 27.2526C20.0562 27.2339 18.9688 26.3714 18.6125 25.2089C18.8 25.2464 18.9687 25.2651 19.175 25.2651C19.4375 25.2651 19.7 25.2276 19.9438 25.1526C18.5938 24.8901 17.5813 23.7089 17.5813 22.2839C17.5813 22.2651 17.5813 22.2651 17.5813 22.2464C17.975 22.4714 18.425 22.6026 18.9125 22.6214C18.125 22.0964 17.6 21.1964 17.6 20.1651C17.6 19.6214 17.75 19.1151 17.9938 18.6839C19.4375 20.4651 21.6125 21.6276 24.05 21.7589C23.9937 21.5526 23.975 21.3089 23.975 21.0839C23.975 19.4526 25.2875 18.1401 26.9187 18.1401C27.7625 18.1401 28.5312 18.4964 29.0562 19.0589C29.7312 18.9276 30.35 18.6839 30.9312 18.3464C30.7062 19.0401 30.2375 19.6026 29.6375 19.9776C30.2375 19.9026 30.8 19.7526 31.325 19.5089C30.95 20.1089 30.4625 20.6339 29.8813 21.0464Z" fill="white"/>
</g>
</g>
</svg>
