<svg width="48" height="49" viewBox="0 0 48 49" fill="none" xmlns="http://www.w3.org/2000/svg">
<g id="YouTube">
<rect y="0.140137" width="48" height="48" fill="#2E282A"/>
<rect y="0.140137" width="48" height="48" fill="white" fill-opacity="0.02"/>
<g id="YouTube_2">
<path id="Exclude" fill-rule="evenodd" clip-rule="evenodd" d="M29.869 19.4609C30.5115 19.6339 31.0181 20.1405 31.191 20.783C31.5123 21.9568 31.4999 24.4032 31.4999 24.4032C31.4999 24.4032 31.4999 26.8373 31.191 28.0111C31.0181 28.6536 30.5115 29.1602 29.869 29.3332C28.6952 29.6421 24 29.6421 24 29.6421C24 29.6421 19.3171 29.6421 18.131 29.3208C17.4885 29.1478 16.9819 28.6413 16.8089 27.9988C16.5 26.8373 16.5 24.3909 16.5 24.3909C16.5 24.3909 16.5 21.9568 16.8089 20.783C16.9819 20.1405 17.5008 19.6215 18.131 19.4485C19.3048 19.1396 24 19.1396 24 19.1396C24 19.1396 28.6952 19.1396 29.869 19.4609ZM26.4093 24.3909L22.5049 26.6396V22.1421L26.4093 24.3909Z" fill="white"/>
</g>
</g>
</svg>
